<?xml version="1.0" encoding="UTF-8" standalone="no"?>
<svg xmlns="http://www.w3.org/2000/svg" version="1.1" width="600" height="600" transform="translate(50, 50)" >

<rect width="500" height="500" style="fill:#FFFFFF;stroke-width:3;stroke:#000000" />

<line x1="99" y1="0" x2="99" y2="500" style="stroke-width:2;stroke:black"/>
<line x1="199" y1="0" x2="199" y2="500" style="stroke-width:2;stroke:black"/>
<line x1="299" y1="0" x2="299" y2="500" style="stroke-width:2;stroke:black"/>
<line x1="399" y1="0" x2="399" y2="500" style="stroke-width:2;stroke:black"/>

<line x1="99" y1="300" x2="99" y2="500" style="stroke-width:4;stroke:red"/>
<line x1="199" y1="0" x2="199" y2="100" style="stroke-width:4;stroke:red"/>

<line x1="0" y1="99" x2="500" y2="99" style="stroke-width:2;stroke:black"/>
<line x1="0" y1="199" x2="500" y2="199" style="stroke-width:2;stroke:black"/>
<line x1="0" y1="299" x2="500" y2="299" style="stroke-width:2;stroke:black"/>
<line x1="0" y1="399" x2="500" y2="399" style="stroke-width:2;stroke:black"/>

<line x1="300" y1="299" x2="500" y2="299" style="stroke-width:4;stroke:red"/>

<circle cx="250" cy="50" r="15" fill="yellow"/>
<circle cx="350" cy="350" r="15" fill="yellow"/>
<circle cx="50" cy="450" r="15" fill="yellow"/>

<circle cx="400" cy="200" r="10" fill="red"/>
<circle cx="0" cy="100" r="10" fill="red"/>
<circle cx="-10000" cy="10500" r="10" fill="red"/>

</svg>